<?xml version="1.0" encoding="UTF-8"?>
<svg id="Layer_1" data-name="Layer 1" xmlns="http://www.w3.org/2000/svg" viewBox="0 0 1000 1000">
  <defs>
    <style>
      .cls-1 {
        fill: #cf0;
      }
    </style>
  </defs>
  <rect class="cls-1" x="0" y="-.01" width="1000" height="1000"/>
  <path d="m618.39,331.12c-3.5,0-6.64,0-9.58,0-2.94,0-5.66,0-8.32,0h-7.9c-2.66,0-5.38,0-8.32,0s-6.08,0-9.58,0c3.09,4.79,5.81,9.19,8.22,13.31,2.41,4.12,4.51,7.95,6.36,11.57,1.85,3.62,3.44,7.01,4.82,10.25,1.38,3.24,2.55,6.32,3.53,9.29.98,2.97,1.79,5.82,2.43,8.61.64,2.78,1.12,5.5,1.44,8.17.33,2.68.5,5.32.52,7.95.02,2.64-.11,5.27-.4,7.94-.29,2.67-.74,5.36-1.38,8.12-.63,2.76-1.45,5.59-2.47,8.52-1.02,2.93-2.26,5.97-3.75,9.16-1.49,3.19-3.24,6.55-5.28,10.08-2.05,3.53-4.3,6.97-6.78,10.35h0c.66-3.14,1.19-6.33,1.58-9.6.39-3.27.6-6.46.61-9.46,0-3-.17-5.87-.5-8.64-.33-2.77-.82-5.44-1.44-8.04-.62-2.6-1.38-5.14-2.27-7.64-.89-2.5-1.9-4.96-3.04-7.41-1.14-2.45-2.4-4.89-3.79-7.35-1.39-2.46-2.91-4.93-4.58-7.45s-3.47-5.08-5.44-7.72c-1.97-2.64-4.1-5.35-6.42-8.17-2.32-2.82-4.83-5.75-7.57-8.82-2.73-3.07-5.69-6.3-8.92-9.71-3.23-3.42-6.72-7.03-10.54-10.9s-7.95-7.99-12.47-12.44h-40.78c2.65,4.8,4.94,9.21,6.93,13.34,1.99,4.13,3.69,7.96,5.14,11.58,1.45,3.62,2.66,7.02,3.67,10.26s1.81,6.32,2.44,9.29c.63,2.97,1.08,5.82,1.37,8.61.29,2.78.43,5.49.41,8.17-.02,2.67-.19,5.31-.51,7.95-.32,2.63-.8,5.27-1.44,7.93-.64,2.66-1.45,5.36-2.44,8.11-.99,2.76-2.17,5.58-3.57,8.51-1.4,2.93-3.02,5.97-4.9,9.15-1.88,3.19-4.04,6.55-6.51,10.08-2.47,3.53-5.16,6.97-8.1,10.35h0c1.08-3.14,2.01-6.33,2.8-9.6.79-3.27,1.37-6.46,1.75-9.46.38-3,.56-5.87.59-8.63.02-2.76-.12-5.43-.4-8.03-.28-2.6-.71-5.13-1.27-7.63-.56-2.5-1.25-4.95-2.07-7.4-.82-2.45-1.76-4.89-2.84-7.34-1.07-2.46-2.28-4.93-3.62-7.45-1.35-2.52-2.83-5.08-4.48-7.71-1.64-2.64-3.45-5.35-5.43-8.17s-4.16-5.75-6.54-8.82c-2.39-3.08-4.99-6.3-7.85-9.72-2.86-3.42-5.98-7.04-9.4-10.91-3.43-3.87-7.16-8-11.27-12.46h-8.13c-2.49,0-4.81,0-7.06,0s-4.45,0-6.7,0h-7.06c-2.49,0-5.16,0-8.13,0,3.74,4.86,7.16,9.45,10.28,13.82,3.12,4.36,5.94,8.5,8.49,12.46,2.54,3.96,4.81,7.73,6.82,11.36,2.01,3.63,3.76,7.12,5.28,10.49,1.51,3.38,2.79,6.64,3.83,9.83,1.05,3.18,1.87,6.29,2.49,9.34.61,3.05,1.02,6.04,1.22,9,.21,2.96.21,5.89.03,8.81-.18,2.92-.55,5.83-1.09,8.74-.55,2.91-1.27,5.84-2.17,8.78-.9,2.95-1.96,5.92-3.2,8.93-1.23,3.01-2.59,5.94-4.01,8.68-1.42,2.74-2.92,5.34-4.48,7.83-1.56,2.48-3.18,4.86-4.85,7.14-1.67,2.28-3.38,4.48-5.13,6.62-1.75,2.14-3.52,4.21-5.32,6.25-1.8,2.04-3.61,4.05-5.44,6.04-1.82,1.99-3.65,3.97-5.47,5.97-1.82,1.99-3.64,4-5.44,6.04-1.8,2.04-3.58,4.12-5.32,6.25-1.75,2.14-3.46,4.33-5.13,6.62-1.67,2.28-3.29,4.65-4.85,7.14-1.56,2.48-3.06,5.08-4.48,7.83-1.42,2.74-2.78,5.64-4.02,8.69-1.23,3.05-2.31,6.2-3.21,9.45-.9,3.25-1.64,6.61-2.2,10.07-.56,3.46-.94,7.02-1.14,10.68s-.2,7.42-.02,11.28c.19,3.86.58,7.81,1.18,11.86.6,4.05,1.41,8.19,2.45,12.42s2.3,8.55,3.81,12.96c1.51,4.4,3.26,8.89,5.27,13.46,2.01,4.57,4.29,9.21,6.85,13.92,2.56,4.71,5.41,9.49,8.56,14.33,3.16,4.84,6.62,9.74,10.42,14.68h28.95c2.49,0,5.16,0,8.13,0-2.61-4.22-4.93-8.32-7.01-12.31-2.08-3.99-3.91-7.86-5.54-11.63-1.63-3.77-3.06-7.44-4.31-11.01-1.25-3.58-2.33-7.06-3.26-10.47-.93-3.41-1.71-6.74-2.36-10.01s-1.16-6.48-1.56-9.63c-.39-3.16-.67-6.27-.83-9.35-.16-3.08-.2-6.13-.13-9.15.07-3.03.26-6.03.56-9.03.31-3,.73-5.99,1.29-8.99.56-2.99,1.24-5.99,2.08-9,.84-3.01,1.82-6.02,2.97-9.05,1.15-3.03,2.48-6.07,4.01-9.12,1.53-3.05,3.28-6.13,5.21-9.17,1.94-3.04,4.04-6.02,6.32-8.95h0c-.7,2.75-1.28,5.53-1.77,8.38-.48,2.84-.85,5.73-1.05,8.6-.2,2.86-.25,5.72-.17,8.56.08,2.84.28,5.68.59,8.5.32,2.82.74,5.64,1.27,8.45.53,2.81,1.16,5.62,1.89,8.43.73,2.81,1.56,5.62,2.48,8.45.92,2.83,1.95,5.67,3.07,8.53,1.12,2.86,2.34,5.75,3.68,8.67,1.33,2.92,2.77,5.87,4.33,8.87,1.56,3,3.24,6.05,5.06,9.15,1.82,3.1,3.77,6.27,5.88,9.5,2.11,3.23,4.38,6.54,6.84,9.92,2.46,3.38,5.09,6.85,7.95,10.41,2.85,3.56,5.93,7.2,9.25,10.95,3.33,3.74,6.9,7.59,10.78,11.53h16.7c2.48,0,4.89,0,7.37,0h16.7c-2.2-4.19-4.12-8.27-5.82-12.24-1.7-3.97-3.16-7.83-4.44-11.59-1.27-3.76-2.36-7.42-3.27-10.99-.92-3.57-1.67-7.05-2.28-10.46-.61-3.41-1.08-6.74-1.43-10.01-.34-3.27-.56-6.48-.66-9.64-.1-3.16-.08-6.28.05-9.36.13-3.08.38-6.14.74-9.17.36-3.03.84-6.05,1.44-9.06.6-3.01,1.32-6.01,2.18-9.01.86-3,1.85-6.01,3-9.02,1.15-3.01,2.45-6.04,3.93-9.07,1.48-3.03,3.14-6.08,5.01-9.13,1.87-3.06,3.98-6.14,6.29-9.18,2.31-3.04,4.79-6.02,7.46-8.95h0c-1.14,2.93-2.14,5.91-3.01,8.95-.87,3.04-1.58,6.12-2.09,9.18-.52,3.06-.86,6.1-1.05,9.14-.19,3.04-.23,6.06-.14,9.07.09,3.02.31,6.02.65,9.03.34,3,.79,6.01,1.36,9.02.57,3.01,1.25,6.03,2.04,9.06.79,3.04,1.7,6.09,2.72,9.18,1.02,3.09,2.16,6.21,3.43,9.37,1.27,3.17,2.66,6.38,4.2,9.65,1.54,3.27,3.22,6.61,5.07,10.01,1.85,3.41,3.86,6.89,6.07,10.46,2.21,3.57,4.61,7.23,7.23,10.98,2.63,3.76,5.49,7.61,8.61,11.57,3.13,3.96,6.53,8.03,10.25,12.21,3.5,0,6.64,0,9.58,0h8.32c2.66,0,5.24,0,7.9,0s5.38,0,8.32,0,6.08,0,9.58,0c-3.74-4.86-7.15-9.7-10.27-14.49s-5.94-9.54-8.48-14.23c-2.54-4.69-4.81-9.32-6.82-13.88-2.01-4.56-3.76-9.05-5.28-13.46-1.51-4.41-2.79-8.74-3.84-12.99-1.05-4.25-1.87-8.41-2.49-12.47-.61-4.07-1.02-8.04-1.23-11.92-.21-3.88-.21-7.66-.03-11.34.18-3.68.55-7.26,1.09-10.74.55-3.48,1.27-6.85,2.17-10.11.9-3.26,1.96-6.42,3.2-9.47s2.59-5.95,4.02-8.69c1.42-2.74,2.92-5.34,4.49-7.83,1.56-2.48,3.18-4.86,4.85-7.14,1.67-2.28,3.38-4.48,5.13-6.62,1.75-2.14,3.52-4.21,5.32-6.25s3.61-4.05,5.43-6.04c1.82-1.99,3.65-3.97,5.47-5.97,1.82-1.99,3.64-4,5.44-6.04,1.8-2.04,3.58-4.12,5.32-6.25,1.75-2.14,3.46-4.33,5.13-6.62,1.67-2.28,3.29-4.65,4.85-7.14,1.56-2.48,3.06-5.08,4.49-7.83,1.42-2.74,2.78-5.67,4.02-8.68,1.23-3.01,2.3-5.99,3.19-8.94.89-2.95,1.61-5.88,2.16-8.8s.91-5.83,1.08-8.76c.18-2.93.16-5.86-.05-8.83-.21-2.97-.62-5.97-1.24-9.03s-1.45-6.17-2.5-9.36c-1.05-3.19-2.33-6.46-3.84-9.84-1.51-3.38-3.27-6.87-5.28-10.49-2.01-3.63-4.27-7.4-6.81-11.35-2.54-3.95-5.35-8.07-8.46-12.42-3.11-4.35-6.51-8.91-10.23-13.75Zm-149.95,280.31s-.4-.68-1.13-1.96c-.72-1.28-1.76-3.16-3-5.55s-2.66-5.28-4.13-8.59c-1.47-3.3-2.99-7.02-4.41-11.03-1.42-4.01-2.73-8.33-3.81-12.82-1.07-4.49-1.91-9.17-2.39-13.9s-.61-9.52-.3-14.25c.3-4.73,1.09-9.44,2.23-13.87,1.13-4.43,2.56-8.56,4.23-12.42,1.67-3.86,3.57-7.45,5.65-10.82,2.07-3.37,4.31-6.53,6.64-9.51s4.75-5.8,7.21-8.48c2.46-2.67,5.22-5.49,8.18-8.48,2.96-2.99,6.1-6.14,9.32-9.51,3.21-3.37,6.48-6.96,9.69-10.82,3.21-3.86,6.35-7.99,9.3-12.42,2.95-4.43,5.68-9.05,7.97-13.33,2.29-4.28,4.2-8.36,5.76-12.25,1.56-3.89,2.76-7.58,3.67-11.06.91-3.48,1.52-6.76,1.91-9.78.4-3.03.58-5.81.64-8.29.06-2.48,0-4.66-.1-6.46-.1-1.8-.23-3.23-.32-4.21-.1-.98-.16-1.5-.16-1.5,0,0,.58.75,1.6,2.13,1.01,1.38,2.46,3.4,4.1,5.9,1.64,2.51,3.48,5.51,5.26,8.9,1.78,3.39,3.5,7.15,4.91,11.23,1.41,4.08,2.52,8.46,3.11,13.13.59,4.67.68,9.61.11,14.84-.57,5.23-1.85,10.88-3.48,15.91-1.63,5.03-3.66,9.65-5.98,13.91-2.31,4.27-4.91,8.19-7.65,11.86-2.75,3.67-5.64,7.08-8.59,10.29-2.27,2.47-4.8,5.06-7.5,7.79-2.7,2.73-5.57,5.61-8.52,8.66-2.94,3.05-5.96,6.28-8.94,9.73-2.98,3.45-5.93,7.12-8.75,11.04-2.82,3.92-5.55,8.14-7.94,12.45-2.39,4.31-4.45,8.71-6.21,13.1-1.75,4.4-3.19,8.79-4.35,13.09-1.16,4.3-2.04,8.49-2.69,12.5-.65,4-1.07,7.81-1.33,11.34-.26,3.52-.36,6.76-.37,9.63-.01,2.87.06,5.37.16,7.43.09,2.06.21,3.67.29,4.76.08,1.1.13,1.68.13,1.68Z"/>
</svg>